# AST/ASF file generated using VICON BodyLanguage
# -----------------------------------------------
:version 1.10
:name VICON
:units
  mass 1.0
  length 0.45
  angle deg
:documentation
   .ast/.asf automatically generated from VICON data using
   VICON BodyBuilder and BodyLanguage model FoxedUp or BRILLIANT.MOD
:root
   order TX TY TZ RX RY RZ
   axis XYZ
   position 0 0 0  
   orientation 0 0 0 
:bonedata
  begin
     id 1 
     name lhipjoint
     direction 0.635376 -0.686425 0.353719 
     length 2.47244 
     axis 0 0 0  XYZ
  end
  begin
     id 2 
     name lfemur
     direction 0.34202 -0.939693 0  
     length 7.25268  
     axis 0 0 20  XYZ
    dof rx ry rz
    limits (-160.0 20.0)
           (-70.0 70.0)
           (-60.0 70.0)
  end
  begin
     id 3 
     name ltibia
     direction 0.34202 -0.939693 0   
     length 7.6767   
     axis 0 0 20   XYZ
    dof rx
    limits (-10.0 170.0)
  end
  begin
     id 4 
     name lfoot
     direction 0.0803374 -0.220725 0.972022   
     length 2.22945   
     axis -90 7.62852e-016 20   XYZ
    dof rx rz
    limits (-45.0 90.0)
           (-70.0 20.0)
  end
  begin
     id 5 
     name ltoes
     direction 1.53579e-011 -4.21994e-011 1   
     length 1.11848   
     axis -90 7.62852e-016 20   XYZ
    dof rx
    limits (-90.0 20.0)
  end
  begin
     id 6 
     name rhipjoint
     direction -0.664428 -0.664335 0.342336   
     length 2.55466  
     axis 0 0 0  XYZ 
  end
  begin
     id 7 
     name rfemur
     direction -0.34202 -0.939693 0   
     length 6.83172   
     axis 0 0 -20   XYZ
    dof rx ry rz
    limits (-160.0 20.0)
           (-70.0 70.0)
           (-70.0 60.0)
  end
  begin
     id 8 
     name rtibia
     direction -0.34202 -0.939693 0   
     length 7.62692   
     axis 0 0 -20   XYZ
    dof rx
    limits (-10.0 170.0)
 end
 begin
     id 9 
     name rfoot
     direction -0.0949276 -0.260811 0.960711   
     length 2.19684  
     axis -90 -7.62852e-016 -20   XYZ
    dof rx rz
    limits (-45.0 90.0)
           (-20.0 70.0)
  end
  begin
     id 10 
     name rtoes
     direction -1.53543e-011 -4.2183e-011 1   
     length 1.09848   
     axis -90 -7.62852e-016 -20   XYZ
    dof rx
    limits (-90.0 20.0)
  end
  begin
     id 11 
     name lowerback
     direction 0.0118782 0.999815 -0.0151555   
     length 2.15772   
     axis 0 0 0   XYZ
    dof rx ry rz
    limits (-20.0 45.0)
           (-30.0 30.0)
           (-30.0 30.0)
  end
  begin
     id 12 
     name upperback
     direction 0.00130825 0.999065 0.0432113   
     length 2.14863   
     axis 0 0 0   XYZ
    dof rx ry rz
    limits (-20.0 45.0)
           (-30.0 30.0)
           (-30.0 30.0)
  end
  begin
     id 13 
     name thorax
     direction -0.00347005 0.998773 0.0494011   
     length 2.14936   
     axis 0 0 0   XYZ
    dof rx ry rz
    limits (-20.0 45.0)
           (-30.0 30.0)
           (-30.0 30.0)
  end
  begin
     id 14 
     name lowerneck
     direction -0.0262159 0.99424 0.103921   
     length 1.69373   
     axis 0 0 0   XYZ
    dof rx ry rz
    limits (-20.0 45.0)
           (-30.0 30.0)
           (-30.0 30.0)
  end
  begin
     id 15 
     name upperneck
     direction 0.0353511 0.977394 -0.20845   
     length 1.70857   
     axis 0 0 0   XYZ
    dof rx ry rz
    limits (-20.0 45.0)
           (-30.0 30.0)
           (-30.0 30.0)
  end
  begin
     id 16
     name head
     direction 0.0139214 0.996594 -0.0812836  
     length 1.72777  
     axis 0 0 0   XYZ
    dof rx ry rz
    limits (-20.0 45.0)
           (-30.0 30.0)
           (-30.0 30.0)
  end
  begin
     id 17 
     name lclavicle
     direction 0.841247 0.537205 -0.0609508  
     length 3.55371  
     axis 0 0 0   XYZ
    dof ry rz
    limits (-20.0 10.0)
           (0.0 20.0)
  end
  begin
     id 18 
     name lhumerus
     direction 1 -4.48964e-011 1.60116e-018   
     length 4.91377   
     axis -180 -30 -90   XYZ
    dof rx ry rz
    limits (-60.0 90.0)
           (-90.0 90.0)
           (-90.0 90.0)
  end
  begin
     id 19
     name lradius
     direction 1 -4.48989e-011 -8.93847e-027   
     length 3.00291   
     axis -180 -30 -90   XYZ
    dof rx
    limits (-10.0 170.0)
  end
  begin
     id 20
     name lwrist
     direction 1 -4.48932e-011 -7.31504e-027   
     length 1.50145   
     axis 5.74121e-015 90 90   XYZ
    dof ry
    limits (-180.0 0.0)
 end
  begin
     id 21 
     name lhand
     direction 1 -4.48971e-011 -1.46301e-026   
     length 0.450922   
     axis 9.33524e-015 90 90   XYZ
    dof rx rz
    limits (-90.0 90.0)
           (-45.0 45.0)
  end
  begin
     id 22 
     name lfingers
     direction 1 -4.49039e-011 -2.92602e-026   
     length 0.363545   
     axis 1.86705e-014 90 90   XYZ
    dof rx
    limits (0.0 90.0)
  end
  begin
     id 23
     name lthumb
     direction 0.707107 -6.34941e-011 0.707107   
     length 0.52198   
     axis -90 45 2.85299e-015   XYZ
    dof rx rz
    limits (-45.0 45.0)
           (-45.0 45.0)
  end
  begin
     id 24 
     name rclavicle
     direction -0.825079 0.56158 -0.0622297   
     length 3.39909  
     axis 0 0 0   XYZ 
    dof ry rz
    limits (-10.0 20.0)
           (-20.0 0.0)
  end
  begin
     id 25 
     name rhumerus
     direction -1 -4.48965e-011 1.61691e-027  
     length 4.86725   
     axis -180 30 90   XYZ
    dof rx ry rz
    limits (-90.0 60.0)
           (-90.0 90.0)
           (-90.0 90.0)
  end
  begin
     id 26 
     name rradius
     direction -1 -4.48964e-011 -2.25776e-027   
     length 3.17144   
     axis -180 30 90   XYZ
    dof rx
    limits (-10.0 170.0)
  end
  begin
     id 27 
     name rwrist
     direction -1 -4.48961e-011 -7.31504e-027   
     length 1.58572   
     axis 5.74121e-015 -90 -90   XYZ
    dof ry
    limits (-180.0 0.0)
  end
  begin
     id 28
     name rhand
     direction -1 -4.49013e-011 -1.46301e-026   
     length 0.419368   
     axis 9.33524e-015 -90 -90   XYZ
    dof rx rz
    limits (-90.0 90.0)
           (-45.0 45.0)
  end
  begin
     id 29
     name rfingers
     direction -1 -4.489e-011 -2.92602e-026   
     length 0.338105   
     axis 1.86705e-014 -90 -90   XYZ
    dof rx
    limits (0.0 90.0)
  end
  begin
     id 30
     name rthumb
     direction -0.707107 -6.35022e-011 0.707107   
     length 0.485453   
     axis -90 -45 -2.85299e-015   XYZ
    dof rx rz
    limits (-45.0 45.0)
           (-45.0 45.0)
  end
:hierarchy
  begin
    root lhipjoint rhipjoint lowerback
    lhipjoint lfemur
    lfemur ltibia
    ltibia lfoot
    lfoot ltoes
    rhipjoint rfemur
    rfemur rtibia
    rtibia rfoot
    rfoot rtoes
    lowerback upperback
    upperback thorax
    thorax lowerneck lclavicle rclavicle
    lowerneck upperneck
    upperneck head
    lclavicle lhumerus
    lhumerus lradius
    lradius lwrist
    lwrist lhand lthumb
    lhand lfingers
    rclavicle rhumerus
    rhumerus rradius
    rradius rwrist
    rwrist rhand rthumb
    rhand rfingers
  end

#!OML:ASF H:\Swim 2\Project 1\Capture day 1\Session 1\male.ASF
:FULLY-SPECIFIED
:DEGREES
52
root 7.54167 9.88106 11.2447 92.9916 0.9858 3.22976
lowerback -1.32412 1.12522 -5.34167
upperback -2.49237 1.56063 2.17243
thorax -2.03597 0.917788 5.24079
lowerneck -11.7685 -24.0076 1.03411
upperneck 5.71648 -32.6402 3.39492
head 4.28058 -16.0301 -1.47782
rclavicle 6.36111e-015 1.68967e-014
rhumerus 51.5537 22.3763 -14.933
rradius 127.929
rwrist -24.3921
rhand -59.155 4.22019
rfingers 7.12502
rthumb -31.347 -23.1146
lclavicle 6.36111e-015 1.68967e-014
lhumerus 62.0866 -29.9176 27.9407
lradius 126.147
lwrist 25.477
lhand -52.6593 -23.8884
lfingers 7.12502
lthumb -25.1394 4.47635
rfemur -54.6475 -24.4323 21.8178
rtibia 132.017
rfoot 10.8947 8.85887
rtoes 11.6189
lfemur -52.8988 24.381 -27.5759
ltibia 138.238
lfoot -5.92699 7.1242
ltoes 33.6404
53
root 7.54007 9.88079 11.2397 92.9404 0.974654 3.23798
lowerback -1.21862 1.05693 -5.23211
upperback -2.45661 1.46232 2.13766
thorax -2.04085 0.864465 5.1414
lowerneck -11.4447 -23.9201 0.729608
upperneck 5.1602 -32.5145 4.11903
head 4.21129 -15.9769 -1.18568
rclavicle -7.15625e-015 -7.45443e-016
rhumerus 51.7985 23.0955 -14.0527
rradius 128.458
rwrist -23.5081
rhand -59.3844 4.90005
rfingers 7.12502
rthumb -31.5656 -22.3921
lclavicle -7.15625e-015 -7.45443e-016
lhumerus 62.4454 -30.2044 26.5266
lradius 126.556
lwrist 24.7878
lhand -53.0469 -25.0837
lfingers 7.12502
lthumb -25.5107 3.22852
rfemur -54.6833 -24.2477 21.824
rtibia 132.01
rfoot 11.3202 8.90955
rtoes 11.957
lfemur -52.9523 24.3687 -27.659
ltibia 138.237
lfoot -5.76138 7.13108
ltoes 33.6892
54
root 7.53823 9.88045 11.2347 92.8931 0.964674 3.24931
lowerback -1.11583 0.988222 -5.12393
upperback -2.41835 1.36382 2.09978
thorax -2.04209 0.81093 5.03986
lowerneck -11.1125 -23.8298 0.425557
upperneck 4.57917 -32.3848 4.8709
head 4.13702 -15.9241 -0.884198
rclavicle 7.95139e-016 -8.00108e-015
rhumerus 52.0712 23.8311 -13.1585
rradius 128.91
rwrist -22.486
rhand -59.6498 5.55004
rfingers 7.12502
rthumb -31.8184 -21.6922
lclavicle 7.95139e-016 -8.00108e-015
lhumerus 62.7837 -30.4989 25.1252
lradius 126.908
lwrist 23.9668
lhand -53.4206 -26.1929
lfingers 7.12502
lthumb -25.8686 2.06759
rfemur -54.7322 -24.0609 21.8381
rtibia 132.001
rfoot 11.7696 8.96232
rtoes 12.2676
lfemur -53.0208 24.363 -27.744
ltibia 138.246
lfoot -5.57613 7.13127
ltoes 33.7413
55
root 7.53611 9.88 11.2301 92.8413 0.95627 3.25474
lowerback -1.01159 0.924282 -5.02267
upperback -2.37424 1.27194 2.06075
thorax -2.0396 0.760672 4.94121
lowerneck -10.7752 -23.7389 0.126559
upperneck 3.98327 -32.2538 5.63537
head 4.05844 -15.873 -0.578594
rclavicle 2.94201e-014 2.16675e-014
rhumerus 52.3726 24.5728 -12.2543
rradius 129.285
rwrist -21.3784
rhand -59.9751 6.389
rfingers 7.12502
rthumb -32.1281 -20.7912
lclavicle 2.94201e-014 2.16675e-014
lhumerus 63.1067 -30.8012 23.74
lradius 127.209
lwrist 23.0594
lhand -53.7777 -27.2871
lfingers 7.12502
lthumb -26.2105 0.923058
rfemur -54.7847 -23.8615 21.8604
rtibia 131.984
rfoot 12.2623 8.98085
rtoes 12.5997
lfemur -53.0834 24.3823 -27.8156
ltibia 138.263
lfoot -5.38168 7.11743
ltoes 33.7876
56
root 7.53383 9.87947 11.2257 92.7887 0.948795 3.26337
lowerback -0.907109 0.859896 -4.92582
upperback -2.32648 1.17968 2.02062
thorax -2.03402 0.710197 4.84415
lowerneck -10.4384 -23.6483 -0.169361
upperneck 3.3861 -32.1216 6.40579
head 3.98069 -15.8234 -0.272111
rclavicle -1.59028e-014 -1.00883e-014
rhumerus 52.7192 25.3246 -11.3207
rradius 129.583
rwrist -20.1334
rhand -60.3672 7.10883
rfingers 7.12502
rthumb -32.5013 -19.9953
lclavicle -1.59028e-014 -1.00883e-014
lhumerus 63.4102 -31.1035 22.3718
lradius 127.464
lwrist 22.0812
lhand -54.1256 -28.3515
lfingers 7.12502
lthumb -26.5435 -0.191273
rfemur -54.8455 -23.6701 21.8888
rtibia 131.966
rfoot 12.8422 8.9228
rtoes 13.0958
lfemur -53.151 24.4052 -27.8803
ltibia 138.289
lfoot -5.16147 7.09426
ltoes 33.8325
57
root 7.53152 9.87898 11.2213 92.7383 0.939834 3.2774
lowerback -0.8047 0.796494 -4.83397
upperback -2.27606 1.08906 1.97901
thorax -2.02529 0.660564 4.74863
lowerneck -10.1193 -23.5633 -0.458387
upperneck 2.81399 -31.9962 7.16008
head 3.91164 -15.778 0.0249742
rclavicle -3.97569e-015 -1.36167e-014
rhumerus 53.1091 26.0744 -10.3576
rradius 129.813
rwrist -18.7939
rhand -60.8131 7.70724
rfingers 7.12502
rthumb -32.9256 -19.3086
lclavicle -3.97569e-015 -1.36167e-014
lhumerus 63.703 -31.4052 21.0271
lradius 127.679
lwrist 21.0527
lhand -54.4701 -29.3761
lfingers 7.12502
lthumb -26.8732 -1.26618
rfemur -54.9193 -23.4998 21.9174
rtibia 131.955
rfoot 13.5214 8.79602
rtoes 13.8164
lfemur -53.2293 24.4199 -27.9454
ltibia 138.323
lfoot -4.91028 7.06181
ltoes 33.8722
58
root 7.52904 9.87852 11.2172 92.6764 0.934555 3.28834
lowerback -0.69115 0.737912 -4.74774
upperback -2.222 1.0047 1.93969
thorax -2.02044 0.614324 4.65865
lowerneck -9.81688 -23.4847 -0.732885
upperneck 2.27655 -31.8782 7.8767
head 3.84901 -15.737 0.306815
rclavicle -1.03368e-014 -3.03147e-015
rhumerus 53.5419 26.8118 -9.37535
rradius 129.986
rwrist -17.4371
rhand -61.2654 8.29991
rfingers 7.12502
rthumb -33.3557 -18.6246
lclavicle -1.03368e-014 -3.03147e-015
lhumerus 63.9781 -31.7078 19.7388
lradius 127.869
lwrist 20.0404
lhand -54.7805 -30.4474
lfingers 7.12502
lthumb -27.1702 -2.38349
rfemur -54.984 -23.3406 21.9481
rtibia 131.95
rfoot 14.263 8.62088
rtoes 14.6686
lfemur -53.2929 24.4443 -27.9895
ltibia 138.359
lfoot -4.63108 7.00353
ltoes 33.9004
59
root 7.52659 9.87811 11.2132 92.6084 0.929425 3.30381
lowerback -0.573671 0.685044 -4.6705
upperback -2.16704 0.928107 1.9034
thorax -2.01842 0.572346 4.57698
lowerneck -9.53028 -23.4171 -0.995064
upperneck 1.78161 -31.7736 8.54652
head 3.79421 -15.7029 0.570563
rclavicle -2.70347e-014 2.78299e-015
rhumerus 54.0006 27.509 -8.39145
rradius 130.129
rwrist -16.1807
rhand -61.6878 9.03394
rfingers 7.12502
rthumb -33.7571 -17.8034
lclavicle -2.70347e-014 2.78299e-015
lhumerus 64.2534 -32.01 18.5131
lradius 128.036
lwrist 19.0483
lhand -55.0574 -31.54
lfingers 7.12502
lthumb -27.435 -3.51775
rfemur -55.0423 -23.2096 21.9707
rtibia 131.957
rfoot 15.0117 8.44968
rtoes 15.5167
lfemur -53.3542 24.4574 -28.0294
ltibia 138.396
lfoot -4.30961 6.92248
ltoes 33.9131
60
root 7.52426 9.87771 11.209 92.5431 0.928097 3.3267
lowerback -0.46177 0.637372 -4.59841
upperback -2.11622 0.858995 1.87091
thorax -2.0189 0.534524 4.50232
lowerneck -9.25236 -23.358 -1.23825
upperneck 1.32271 -31.6794 9.16577
head 3.74156 -15.6744 0.816758
rclavicle 1.59028e-015 3.62782e-015
rhumerus 54.4743 28.1551 -7.42467
rradius 130.255
rwrist -15.0728
rhand -62.0481 10.0032
rfingers 7.12502
rthumb -34.0994 -16.7584
lclavicle 1.59028e-015 3.62782e-015
lhumerus 64.5376 -32.3155 17.3559
lradius 128.184
lwrist 18.0868
lhand -55.3115 -32.6979
lfingers 7.12502
lthumb -27.678 -4.71439
rfemur -55.1042 -23.1062 21.9931
rtibia 131.975
rfoot 15.7287 8.32449
rtoes 16.2876
lfemur -53.4282 24.4514 -28.0702
ltibia 138.437
lfoot -3.93489 6.82372
ltoes 33.9181
61
root 7.52213 9.87721 11.2047 92.4842 0.928283 3.36034
lowerback -0.360252 0.593937 -4.53336
upperback -2.07111 0.796191 1.84073
thorax -2.02059 0.500271 4.43419
lowerneck -9.00026 -23.308 -1.44697
upperneck 0.925506 -31.5985 9.70644
head 3.69509 -15.6515 1.03301
rclavicle 6.36111e-015 6.18717e-015
rhumerus 54.9492 28.737 -6.49079
rradius 130.379
rwrist -14.1408
rhand -62.3379 11.282
rfingers 7.12502
rthumb -34.3746 -15.4178
lclavicle 6.36111e-015 6.18717e-015
lhumerus 64.8375 -32.6173 16.2734
lradius 128.319
lwrist 17.1804
lhand -55.5329 -33.9535
lfingers 7.12502
lthumb -27.8897 -6.0042
rfemur -55.1702 -23.0342 22.0103
rtibia 132.003
rfoot 16.39 8.26806
rtoes 16.9726
lfemur -53.5207 24.4204 -28.1206
ltibia 138.481
lfoot -3.50988 6.71952
ltoes 33.9186
62
root 7.52017 9.8765 11.2004 92.4304 0.929659 3.39983
lowerback -0.269318 0.556756 -4.47755
upperback -2.03269 0.742363 1.8139
thorax -2.02467 0.471016 4.37484
lowerneck -8.76916 -23.265 -1.61964
upperneck 0.582667 -31.5279 10.1685
head 3.65072 -15.6328 1.22046
rclavicle 1.98785e-014 -1.41634e-015
rhumerus 55.4136 29.2599 -5.60348
rradius 130.505
rwrist -13.361
rhand -62.5427 12.7787
rfingers 7.12502
rthumb -34.569 -13.8769
lclavicle 1.98785e-014 -1.41634e-015
lhumerus 65.1629 -32.917 15.258
lradius 128.433
lwrist 16.2928
lhand -55.7546 -35.2362
lfingers 7.12502
lthumb -28.1017 -7.32152
rfemur -55.2366 -22.987 22.0242
rtibia 132.038
rfoot 16.992 8.26592
rtoes 17.6206
lfemur -53.6236 24.3734 -28.1754
ltibia 138.528
lfoot -3.05683 6.62242
ltoes 33.9339
63
root 7.5183 9.87555 11.1963 92.3785 0.932898 3.43836
lowerback -0.186567 0.526836 -4.42991
upperback -1.99943 0.698728 1.79021
thorax -2.03094 0.447288 4.32337
lowerneck -8.57296 -23.2277 -1.75553
upperneck 0.310425 -31.4672 10.5413
head 3.61429 -15.6163 1.3733
rclavicle -3.18055e-015 4.44781e-015
rhumerus 55.868 29.7337 -4.75268
rradius 130.619
rwrist -12.6202
rhand -62.7194 14.283
rfingers 7.12502
rthumb -34.7367 -12.3341
lclavicle -3.18055e-015 4.44781e-015
lhumerus 65.51 -33.2066 14.3111
lradius 128.532
lwrist 15.4248
lhand -55.972 -36.5118
lfingers 7.12502
lthumb -28.3095 -8.63139
rfemur -55.2989 -22.953 22.0382
rtibia 132.075
rfoot 17.5161 8.29033
rtoes 18.1804
lfemur -53.7238 24.3275 -28.2246
ltibia 138.577
lfoot -2.62006 6.5389
ltoes 33.958
64
root 7.51638 9.87443 11.1926 92.3229 0.938484 3.47218
lowerback -0.106024 0.504694 -4.39174
upperback -1.96863 0.665707 1.77058
thorax -2.03998 0.429269 4.28136
lowerneck -8.40952 -23.1947 -1.86229
upperneck 0.0989762 -31.414 10.8409
head 3.58613 -15.6011 1.49693
rclavicle -2.38542e-015 -6.95746e-015
rhumerus 56.305 30.1588 -3.95131
rradius 130.724
rwrist -11.898
rhand -62.8739 15.7303
rfingers 7.12502
rthumb -34.8833 -10.8529
lclavicle -2.38542e-015 -6.95746e-015
lhumerus 65.8755 -33.4707 13.4321
lradius 128.614
lwrist 14.5867
lhand -56.1675 -37.7549
lfingers 7.12502
lthumb -28.4963 -9.90562
rfemur -55.3507 -22.9285 22.0544
rtibia 132.114
rfoot 17.9665 8.30064
rtoes 18.6848
lfemur -53.8089 24.2935 -28.2582
ltibia 138.626
lfoot -2.23384 6.4727
ltoes 33.9852
65
root 7.5144 9.87335 11.1892 92.2576 0.931785 3.50423
lowerback -0.0198865 0.489989 -4.37642
upperback -1.93743 0.642305 1.75206
thorax -2.05321 0.416619 4.25331
lowerneck -8.28346 -23.1679 -1.94302
upperneck -0.0518814 -31.3713 11.0659
head 3.56727 -15.5879 1.59021
rclavicle 1.51076e-014 -5.71506e-016
rhumerus 56.7175 30.534 -3.20777
rradius 130.818
rwrist -11.178
rhand -63.0067 17.1268
rfingers 7.12502
rthumb -35.0093 -9.42709
lclavicle 1.51076e-014 -5.71506e-016
lhumerus 66.2496 -33.6964 12.6334
lradius 128.683
lwrist 13.7888
lhand -56.3294 -38.8944
lfingers 7.12502
lthumb -28.651 -11.0711
rfemur -55.3861 -22.9321 22.0474
rtibia 132.158
rfoot 18.3368 8.29165
rtoes 19.1346
lfemur -53.871 24.2581 -28.2955
ltibia 138.671
lfoot -1.91001 6.43505
ltoes 34.0076
